HIERARCHY
ROOT Hips
{
 OFFSET 0.000000 0.000000 0.000000
 CHANNELS 6 Xposition Yposition Zposition Yrotation Xrotation Zrotation
 JOINT Chest
 {
  OFFSET 0.000000 9.585900 0.002600
  CHANNELS 3 Yrotation Xrotation Zrotation
  JOINT Chest2
  {
   OFFSET 0.000000 9.601200 -0.005300
   CHANNELS 3 Yrotation Xrotation Zrotation
   JOINT Chest3
   {
    OFFSET 0.000000 9.561800 0.000000
    CHANNELS 3 Yrotation Xrotation Zrotation
    JOINT Chest4
    {
     OFFSET 0.000000 9.552100 0.000000
     CHANNELS 3 Yrotation Xrotation Zrotation
     JOINT Neck
     {
      OFFSET 0.000000 14.453000 0.000000
      CHANNELS 3 Yrotation Xrotation Zrotation
      JOINT Head
      {
       OFFSET 0.000000 8.936500 -0.011300
       CHANNELS 3 Yrotation Xrotation Zrotation
       End Site
       {
        OFFSET 0.000000 17.073600 -0.006000
       }
      }
     }
     JOINT RightCollar
     {
      OFFSET -2.921100 9.558500 0.000000
      CHANNELS 3 Yrotation Xrotation Zrotation
      JOINT RightShoulder
      {
       OFFSET -13.519700 0.000000 0.000000
       CHANNELS 3 Yrotation Xrotation Zrotation
       JOINT RightElbow
       {
        OFFSET 0.000000 -29.696600 0.000000
        CHANNELS 3 Yrotation Xrotation Zrotation
        JOINT RightWrist
        {
         OFFSET 0.000000 -24.004700 0.000000
         CHANNELS 3 Yrotation Xrotation Zrotation
         End Site
         {
          OFFSET 0.000000 -17.728500 0.000000
         }
        }
       }
      }
     }
     JOINT LeftCollar
     {
      OFFSET 2.921100 9.558500 0.000000
      CHANNELS 3 Yrotation Xrotation Zrotation
      JOINT LeftShoulder
      {
       OFFSET 13.519700 0.000000 0.000000
       CHANNELS 3 Yrotation Xrotation Zrotation
       JOINT LeftElbow
       {
        OFFSET 0.000000 -29.696600 0.000000
        CHANNELS 3 Yrotation Xrotation Zrotation
        JOINT LeftWrist
        {
         OFFSET 0.000000 -24.004700 0.000000
         CHANNELS 3 Yrotation Xrotation Zrotation
         End Site
         {
          OFFSET 0.000000 -17.728500 0.000000
         }
        }
       }
      }
     }
    }
   }
  }
 }
 JOINT RightHip
 {
  OFFSET -7.771700 -0.012900 -0.001300
  CHANNELS 3 Yrotation Xrotation Zrotation
  JOINT RightKnee
  {
   OFFSET 0.000000 -40.869800 0.001200
   CHANNELS 3 Yrotation Xrotation Zrotation
   JOINT RightAnkle
   {
    OFFSET 0.000000 -39.717900 0.002100
    CHANNELS 3 Yrotation Xrotation Zrotation
    JOINT RightToe
    {
     OFFSET 0.000000 -4.965400 11.033500
     CHANNELS 3 Yrotation Xrotation Zrotation
     End Site
     {
      OFFSET 0.000000 -1.423100 5.872300
     }
    }
   }
  }
 }
 JOINT LeftHip
 {
  OFFSET 7.771700 -0.012900 -0.001300
  CHANNELS 3 Yrotation Xrotation Zrotation
  JOINT LeftKnee
  {
   OFFSET 0.000000 -40.869800 0.001200
   CHANNELS 3 Yrotation Xrotation Zrotation
   JOINT LeftAnkle
   {
    OFFSET 0.000000 -39.717900 0.002100
    CHANNELS 3 Yrotation Xrotation Zrotation
    JOINT LeftToe
    {
     OFFSET 0.000000 -4.965400 11.033500
     CHANNELS 3 Yrotation Xrotation Zrotation
     End Site
     {
      OFFSET 0.000000 -1.423100 5.872300
     }
    }
   }
  }
 }
}
MOTION
Frames: 16
Frame Time: 0.008333
0.000000 85.388000 0.000000 0.000000 -5.767877 0.000000 0.000000 11.653817 0.000000 0.000000 -5.885947 0.000000 0.000000 -0.000000 0.000000 0.000000 -0.000000 0.000000 0.000000 12.528835 0.000000 0.000000 0.711642 0.000000 0.000000 -0.000000 0.000000 0.000000 0.000000 -90.000000 0.000000 -2.309062 0.000000 0.000000 2.309062 0.000000 0.000000 -0.000000 0.000000 0.000000 -0.000000 90.000000 0.000000 -2.309062 0.000000 0.000000 2.309062 0.000000 0.000000 8.520406 0.000000 0.000000 1.905762 0.000000 -0.000000 -4.658285 0.000000 0.000000 -0.000000 0.000000 0.000000 8.520406 0.000000 0.000000 1.905762 0.000000 -0.000000 -4.658285 0.000000 0.000000 -0.000000 0.000000
-36.184148 44.182644 36.464468 179.508387 -43.755760 0.183176 -0.704682 22.359469 0.469853 -0.179672 3.122103 0.148629 -0.287794 5.064789 0.236512 -1.007905 18.961540 0.785747 -5.481768 18.705295 -3.622652 -5.074652 -5.738443 -2.618000 17.189935 -1.048050 -7.169840 13.268218 -36.708227 -6.960339 86.277170 -29.429346 -99.402387 10.095612 -11.341721 -76.842122 -27.362159 -0.198165 -2.660951 -1.400168 -34.839308 1.122157 -101.627181 -27.477042 121.635438 -11.380419 -10.278657 61.583500 -1.087172 -48.968432 7.368057 -150.789084 71.901399 -151.278768 -12.929138 -23.691855 8.991984 0.182602 -0.763442 0.061490 3.615543 -38.877135 -7.967652 172.091373 65.334560 172.571325 -1.465102 -32.308324 2.495638 0.111960 0.523485 0.163577
-36.195690 44.184126 36.475098 179.499358 -43.905879 0.192206 -0.677528 22.326452 0.463965 -0.178462 3.130239 0.147033 -0.285749 5.077349 0.233812 -0.992753 18.946444 0.767160 -5.491798 18.863978 -3.583721 -5.054486 -5.650022 -2.566086 17.158304 -0.930960 -7.094221 13.353378 -36.675810 -6.921265 86.560981 -29.356551 -99.815070 10.093411 -11.348681 -76.846490 -27.368676 -0.149361 -2.658213 -1.374921 -34.752805 1.059678 -101.830074 -27.369933 121.900574 -11.407705 -10.251319 61.664338 -1.088188 -48.818363 7.361960 -150.709472 71.923603 -151.221062 -12.920989 -23.648964 8.988845 0.190545 -0.787597 0.070907 3.668760 -38.730677 -7.987737 172.025151 65.347304 172.529809 -1.466986 -32.275257 2.487892 0.119660 0.505971 0.139470
-36.205868 44.183792 36.489429 179.520054 -44.058294 0.162951 -0.667427 22.298212 0.477462 -0.177167 3.137139 0.145613 -0.283611 5.087991 0.231500 -0.976964 18.928316 0.752777 -5.501800 19.026161 -3.550716 -5.030027 -5.560809 -2.517441 17.137068 -0.878291 -7.052087 13.409711 -36.576951 -6.847616 86.831523 -29.279418 -100.216811 10.097331 -11.355545 -76.846318 -27.382149 -0.080499 -2.664771 -1.305577 -34.786106 0.991704 -102.020027 -27.290318 122.050999 -11.430133 -10.233647 61.711849 -1.121088 -48.665919 7.378650 -150.633401 71.948292 -151.157647 -12.914490 -23.653484 8.985755 0.190709 -0.753305 0.075093 3.689342 -38.587817 -7.989861 171.965587 65.358786 172.496432 -1.440155 -32.224299 2.475048 0.089085 0.478836 0.138860
-36.216061 44.181563 36.506917 179.489917 -44.204636 0.164222 -0.619673 22.265858 0.495874 -0.175652 3.142453 0.144212 -0.281225 5.096193 0.229307 -0.967809 18.941599 0.744797 -5.487564 19.134758 -3.509548 -5.016062 -5.442790 -2.483256 17.117318 -0.862947 -7.025286 13.484917 -36.469415 -6.783075 87.084791 -29.203104 -100.597314 10.104956 -11.359613 -76.837616 -27.388145 -0.045859 -2.663746 -1.297552 -34.783336 0.954128 -102.185626 -27.215926 122.227479 -11.449483 -10.224660 61.709209 -1.114310 -48.522262 7.389938 -150.524926 71.987143 -151.072835 -12.855660 -23.593994 8.975404 0.185813 -0.769726 0.079921 3.741646 -38.451782 -7.981061 171.909580 65.369318 172.465631 -1.444592 -32.196111 2.482302 0.080519 0.474408 0.134577
-36.232947 44.181749 36.522502 179.523874 -44.375151 0.161189 -0.631530 22.258661 0.472337 -0.174538 3.146358 0.142823 -0.279400 5.102233 0.227053 -0.961338 18.951462 0.736534 -5.424704 19.203274 -3.449600 -5.040798 -5.267354 -2.463152 17.093553 -0.826871 -6.987850 13.512725 -36.376366 -6.723943 87.387824 -29.164312 -100.966324 10.113649 -11.360776 -76.814720 -27.389557 -0.011363 -2.666931 -1.333949 -34.765166 0.945473 -102.337967 -27.162363 122.411005 -11.467501 -10.222523 61.664754 -1.075699 -48.349036 7.313199 -150.488404 72.022873 -151.023217 -12.883357 -23.555713 8.977641 0.158488 -0.770568 0.080032 3.798998 -38.292780 -8.027018 171.832491 65.386382 172.420507 -1.472380 -32.147570 2.505489 0.082726 0.462002 0.122338
-36.243771 44.186369 36.533736 179.548650 -44.582051 0.133331 -0.623343 22.289563 0.482582 -0.173859 3.149013 0.141318 -0.278254 5.106287 0.224585 -0.957904 18.958199 0.727231 -5.413500 19.336089 -3.420921 -5.018446 -5.141782 -2.432947 17.068395 -0.788465 -6.949646 13.544981 -36.282534 -6.663871 87.691376 -29.146221 -101.320736 10.118451 -11.363677 -76.770634 -27.385008 0.022993 -2.672547 -1.382877 -34.749866 0.949030 -102.492241 -27.129679 122.585716 -11.484592 -10.224478 61.598697 -1.080088 -48.135195 7.289948 -150.499968 72.048752 -151.027809 -12.858840 -23.533467 8.968335 0.148139 -0.780177 0.080764 3.785571 -38.091315 -8.009440 171.810549 65.394210 172.409090 -1.478153 -32.135214 2.490552 0.089226 0.462310 0.125234
-36.255433 44.189232 36.546526 179.581235 -44.769849 0.113270 -0.627753 22.300969 0.476091 -0.173052 3.150121 0.139567 -0.277020 5.107971 0.221750 -0.954319 18.961210 0.716780 -5.420794 19.498371 -3.400646 -4.977416 -5.033645 -2.405148 17.040170 -0.746310 -6.906402 13.715588 -36.229025 -6.648603 87.864180 -29.113568 -101.600455 10.112662 -11.369168 -76.702133 -27.376089 0.061692 -2.676998 -1.425322 -34.734363 0.951165 -102.662832 -27.106918 122.758900 -11.500568 -10.224757 61.528054 -1.089112 -47.944462 7.266935 -150.486833 72.065077 -151.017250 -12.854654 -23.514360 8.967753 0.130697 -0.778941 0.077230 3.795425 -37.912797 -8.013889 171.774478 65.405348 172.390530 -1.494619 -32.106577 2.490447 0.093712 0.456842 0.123924
-36.265561 44.191439 36.559445 179.606701 -44.947439 0.099604 -0.627773 22.299616 0.466245 -0.171994 3.149479 0.137578 -0.275424 5.107019 0.218558 -0.949797 18.960084 0.705510 -5.399433 19.641008 -3.368639 -4.985508 -4.942042 -2.396559 17.007281 -0.699592 -6.856796 13.791107 -36.170908 -6.595520 88.120849 -29.116828 -101.878944 10.097392 -11.371763 -76.612694 -27.363277 0.108447 -2.680829 -1.456653 -34.714798 0.948842 -102.854071 -27.087295 122.937399 -11.511151 -10.223348 61.465458 -1.091035 -47.764676 7.244227 -150.489288 72.085651 -151.024984 -12.851611 -23.499893 8.973616 0.144153 -0.768614 0.072839 3.803210 -37.744766 -8.008779 171.767898 65.417575 172.392272 -1.508910 -32.080022 2.479898 0.101766 0.452066 0.119198
-36.273303 44.193613 36.571632 179.640012 -45.120736 0.077565 -0.628482 22.291205 0.462124 -0.171113 3.147448 0.135396 -0.274047 5.103937 0.215050 -0.946566 18.955622 0.693179 -5.350883 19.731057 -3.334383 -5.016110 -4.788365 -2.387386 16.969834 -0.647512 -6.803506 13.804129 -36.110364 -6.516989 88.425754 -29.129308 -102.156006 10.081351 -11.367439 -76.515663 -27.346164 0.162042 -2.686048 -1.482008 -34.688842 0.944594 -103.056685 -27.065661 123.120474 -11.515444 -10.222602 61.426672 -1.103742 -47.582743 7.223877 -150.520585 72.118032 -151.061257 -12.849476 -23.500280 8.981824 0.125085 -0.747364 0.060734 3.811892 -37.582953 -8.001447 171.790444 65.426883 172.426710 -1.524819 -32.049384 2.498300 0.110553 0.443348 0.121444
-36.282947 44.196404 36.582275 179.679885 -45.296125 0.073288 -0.639029 22.284298 0.436828 -0.170467 3.144463 0.133304 -0.273003 5.099387 0.211676 -0.944667 18.948823 0.681167 -5.327911 19.837971 -3.303262 -4.984997 -4.573300 -2.340170 16.929427 -0.587608 -6.751026 13.781917 -36.053143 -6.424601 88.746299 -29.125673 -102.431545 10.069402 -11.358029 -76.424764 -27.324271 0.218928 -2.692605 -1.503601 -34.658823 0.939301 -103.256641 -27.033111 123.300435 -11.521332 -10.221971 61.426601 -1.110883 -47.403920 7.188725 -150.557398 72.135943 -151.105561 -12.881741 -23.503041 8.989188 0.159680 -0.732400 0.062942 3.806528 -37.414081 -8.012275 171.807280 65.445888 172.433375 -1.529470 -32.025821 2.515666 0.105070 0.445618 0.117727
-36.287868 44.197467 36.593669 179.712532 -45.454694 0.055653 -0.636547 22.263748 0.432606 -0.169610 3.140636 0.131628 -0.271699 5.093502 0.208983 -0.941550 18.939924 0.671918 -5.319771 19.949418 -3.275071 -4.975296 -4.431848 -2.304469 16.887592 -0.516624 -6.705873 13.737300 -35.999502 -6.329121 89.067532 -29.100424 -102.707312 10.058495 -11.347451 -76.345487 -27.302058 0.275664 -2.700426 -1.508575 -34.630108 0.926806 -103.445086 -26.984146 123.463461 -11.534916 -10.223008 61.464555 -1.128438 -47.241662 7.176819 -150.596992 72.153665 -151.147423 -12.882948 -23.523387 8.973689 0.154330 -0.713133 0.072327 3.838773 -37.264633 -8.019015 171.806683 65.454430 172.463064 -1.548798 -31.996909 2.524295 0.114114 0.437484 0.119334
-36.291791 44.199733 36.602964 179.736760 -45.621302 0.046175 -0.629450 22.257535 0.428090 -0.168441 3.136136 0.130391 -0.269920 5.086559 0.207049 -0.936372 18.929371 0.665987 -5.317499 20.045935 -3.247852 -4.980376 -4.322508 -2.276549 16.848239 -0.389696 -6.647655 13.712248 -35.973620 -6.282652 89.373473 -29.049964 -102.996429 10.046121 -11.335053 -76.275522 -27.283713 0.326522 -2.708554 -1.492552 -34.604270 0.900772 -103.613713 -26.920642 123.594772 -11.554737 -10.227468 61.516468 -1.161943 -47.070722 7.178820 -150.600751 72.167071 -151.167351 -12.891780 -23.533099 8.960984 0.169396 -0.703171 0.081420 3.847348 -37.102399 -8.023279 171.799252 65.462301 172.472132 -1.552525 -31.983291 2.516561 0.116437 0.437251 0.118445
-36.296892 44.200849 36.612654 179.751820 -45.775789 0.056535 -0.617204 22.246905 0.414591 -0.167285 3.131526 0.129519 -0.268094 5.079456 0.205667 -0.930816 18.918485 0.662195 -5.322016 20.127849 -3.221936 -4.996151 -4.218347 -2.273000 16.795753 -0.335359 -6.631218 13.688136 -35.903013 -6.204036 89.643101 -29.000160 -103.262444 10.037845 -11.318409 -76.211248 -27.272701 0.366078 -2.716159 -1.477728 -34.575890 0.873630 -103.749308 -26.854049 123.690762 -11.573421 -10.233947 61.550711 -1.217169 -46.915494 7.185105 -150.575445 72.175493 -151.186082 -12.890470 -23.530247 8.946396 0.179292 -0.700691 0.088422 3.869564 -36.951612 -8.044713 171.791167 65.471099 172.477879 -1.551488 -31.967417 2.496682 0.118956 0.436257 0.112997
-36.302235 44.201817 36.622048 179.781902 -45.925486 0.062150 -0.613709 22.240013 0.398763 -0.166055 3.127052 0.128852 -0.266109 5.072572 0.204624 -0.924475 18.907886 0.659617 -5.332742 20.198752 -3.197809 -5.011283 -4.141393 -2.232670 16.737069 -0.291762 -6.617703 13.703019 -35.820747 -6.156392 89.878185 -28.957933 -103.528204 10.035485 -11.298995 -76.154057 -27.272328 0.394065 -2.723117 -1.489772 -34.539544 0.866818 -103.839601 -26.803257 123.754978 -11.579458 -10.239346 61.546117 -1.229013 -46.766439 7.151888 -150.562215 72.181211 -151.187109 -12.889143 -23.529083 8.936109 0.129445 -0.709568 0.086029 3.881935 -36.806517 -8.072244 171.771296 65.482365 172.468777 -1.559477 -31.948955 2.495079 0.119847 0.437982 0.108608
-36.306324 44.202633 36.631502 179.816524 -46.068787 0.060116 -0.611738 22.236564 0.386579 -0.164233 3.122601 0.128236 -0.263194 5.065799 0.203727 -0.914367 18.897473 0.657984 -5.346675 20.261129 -3.175089 -5.032437 -4.066117 -2.202398 16.676089 -0.242824 -6.590341 13.746060 -35.744699 -6.143551 90.094042 -28.924106 -103.791072 10.031149 -11.279992 -76.104423 -27.280998 0.414121 -2.726393 -1.527225 -34.495801 0.880753 -103.892114 -26.786512 123.791802 -11.572003 -10.242888 61.496291 -1.232614 -46.623592 7.116374 -150.543012 72.185595 -151.172311 -12.882293 -23.524756 8.929590 0.136724 -0.719562 0.084221 3.881287 -36.670626 -8.090359 171.777972 65.494016 172.479150 -1.557653 -31.927949 2.495858 0.120514 0.438383 0.101848
